<svg xmlns="http://www.w3.org/2000/svg" width="819.261" height="1292.503"><path fill="#98CA3E" d="M560.402 44.463c-16.392-7.184-32.71-12.154-48.855-15.14a189.75 189.75 0 0 0-34.548-3.184c-57.684 0-110.933 26.514-153.756 66.656-51.972 48.717-139.868 148.394-34.464 192.832 30.689 12.938 64.613 19.823 98.357 19.823 22.855 0 45.629-3.158 67.259-9.732 25.302-7.69 49.083-19.972 70.153-35.936 5.845-4.429 25.929-21.906 34.705-40.61 0 0 .69 35.218-15.882 75.96-16.014 39.365-62.804 91.746-62.804 91.746l107.294 91.59c.387.429.764.868 1.15 1.297.097.107.197.211.295.318 14.686-22.088 27.932-45.433 38.98-70.161 53.939-120.719 79.733-300.765-67.884-365.459z"/><path fill="#231F20" d="M680.431 132.88c-9.502-24.59-23.154-46.383-40.578-64.774-18.66-19.699-41.862-35.708-68.958-47.583-17.829-7.813-36.197-13.5-54.596-16.902A216.607 216.607 0 0 0 476.999 0c-31.492 0-62.842 6.924-93.179 20.578-27.771 12.5-54.167 30.38-78.454 53.147-26.102 24.467-47.053 48.208-62.273 70.562-24.032 35.297-33.667 67.45-28.636 95.564 2.732 15.268 9.668 29.017 20.617 40.865 10.686 11.564 25.337 21.32 43.549 28.998 33.945 14.312 71.468 21.876 108.512 21.876 25.959 0 51.146-3.655 74.86-10.862a247.374 247.374 0 0 0 50.529-21.757c-14.845 27.025-41.1 58.903-51.452 70.494a26.14 26.14 0 0 0 2.523 37.294l105.91 90.408.079.088c.159.176.327.358.495.539a26.144 26.144 0 0 0 21.204 8.354 26.137 26.137 0 0 0 19.789-11.592c16.241-24.428 30.062-49.315 41.079-73.97 14.397-32.223 33.219-82.751 41.118-140.475 7.647-55.867 3.328-105.403-12.838-147.231zm-92.57 345.589l-107.294-91.59s46.79-52.38 62.804-91.746c16.572-40.742 15.882-75.96 15.882-75.96-8.776 18.705-28.86 36.182-34.705 40.61-21.069 15.963-44.851 28.246-70.153 35.936-21.63 6.574-44.404 9.732-67.259 9.732-33.744 0-67.668-6.885-98.357-19.823-105.404-44.438-17.507-144.115 34.464-192.832 42.824-40.143 96.072-66.656 153.756-66.656 11.356 0 22.895 1.029 34.548 3.184 16.146 2.986 32.464 7.956 48.855 15.14 147.617 64.694 121.823 244.74 67.885 365.46-11.049 24.729-24.295 48.073-38.98 70.161-.098-.107-.198-.211-.295-.318-.387-.431-.764-.869-1.151-1.298z"/><path fill="#80B041" d="M534.423 410.577a663.967 663.967 0 0 0 7.451-18.96c10.6-28.28 19.318-57.458 23.987-87.338 1.743-15.527 2.226-31.203.729-46.759-1.46-8.319-3.567-16.502-6.448-24.44-.439-.909-.908-1.803-1.37-2.701-1.073 13.569-4.503 37.959-15.401 64.753-16.014 39.365-62.804 91.746-62.804 91.746l46.679 39.847a799.68 799.68 0 0 0 7.177-16.148z"/><circle fill="#231F20" cx="429.46" cy="212.767" r="36.112"/><path fill="#D59D29" d="M494.236 360.389c-.84-.337-1.689-.673-2.548-1.007-12.354 16.195-30.457 27.08-50.487 30.411l.002.496c0 44.062-35.847 79.909-79.908 79.909-30.699 0-57.954-17.167-71.35-43.839a79.896 79.896 0 0 1-18.573 2.169c-18.104 0-35.645-6.212-49.686-17.344-53.819 46.667-85.419 110.295-89.294 180.35-3.84 69.401 19.512 136.614 65.753 189.257 13.273 15.111 27.986 28.496 43.848 40.035 30.358 2.988 60.751 4.744 91.19 2.406 12.758-.98 25.496-2.557 38.183-4.362l-39.315-20.383c-8.861-4.595-10.559-16.549-3.328-23.429l30.037-28.581c6.307-6.001 16.438-5.147 21.653 1.822l35.206 47.058c3.412 4.561 3.755 10.53 1.274 15.353a251.495 251.495 0 0 0 22.596-6.883 262.932 262.932 0 0 0 11.451-4.409c14.488-5.955 29.091-11.817 43.287-18.473 15.628-7.327 30.133-16.429 44.357-26.155 21.588-14.764 42.582-30.666 62.361-47.763 12.133-10.486 23.369-21.996 33.303-34.593 8.812-11.177 17.486-22.182 25.59-33.54a267.362 267.362 0 0 0 1.583-17.115 267.616 267.616 0 0 0-1.249-46.082c-10.837-94.61-75.971-179.123-165.936-215.308zM268.922 687.467l-32.298 20.304c-6.138 3.858-14.243 1.99-18.072-4.166l-17.257-27.744c-5.082-8.169.097-18.846 9.659-19.912l46.606-5.197a13.083 13.083 0 0 1 14.19 10.028l2.949 12.637a13.082 13.082 0 0 1-5.777 14.05zm18.151-164.669l-59.286 14.015a14.532 14.532 0 0 1-16.992-9.154l-5.005-13.698a14.531 14.531 0 0 1 6.117-17.416l49.525-30.012c7.272-4.406 16.757-1.656 20.543 5.958l14.767 29.694c4.168 8.381-.56 18.459-9.669 20.613zm142.124 96.812l-6.369 14.046a15.548 15.548 0 0 1-15.617 9.059l-45.143-4.247c-8.578-.807-14.865-8.436-14.017-17.011l3.821-38.645c1.125-11.379 13.736-17.692 23.521-11.774l47.691 28.845c6.74 4.078 9.366 12.552 6.113 19.727zm63.047-122.782c-8.018-1.637-13.104-9.569-11.244-17.539l6.056-25.955c1.854-7.947 9.888-12.81 17.788-10.768l49.86 12.889a14.532 14.532 0 0 1 10.844 15.278l-2.009 24.077c-.724 8.675-8.86 14.771-17.39 13.029l-53.905-11.011zm108.697 139.78l-48.646 61.851a14.531 14.531 0 0 1-18.995 3.419l-31.849-19.448a14.534 14.534 0 0 1-6.26-16.854l22.582-70.17c2.697-8.384 12.174-12.46 20.115-8.652l57.912 27.768c8.387 4.021 10.89 14.776 5.141 22.086z"/><path fill="#A57F48" d="M600.945 707.026c-19.779 17.097-40.773 32.999-62.361 47.763-14.225 9.727-28.729 18.828-44.357 26.155-14.195 6.655-28.799 12.518-43.287 18.473a261.653 261.653 0 0 1-11.451 4.409 251.948 251.948 0 0 1-22.596 6.883A14.499 14.499 0 0 1 414 814.59l-10.442 9.936a14.53 14.53 0 0 1-16.706 2.373l-15.486-8.029c-12.687 1.806-25.424 3.382-38.183 4.362-30.439 2.338-60.832.582-91.19-2.406 39.401 28.664 85.927 45.892 135.341 49.539 6.598.486 13.279.733 19.858.733 134.136 0 246.341-100.682 262.645-232.205-8.104 11.358-16.777 22.363-25.59 33.54-9.933 12.597-21.169 24.107-33.302 34.593z"/><path fill="#231F20" d="M686.14 572.721c-11.912-104.005-83.41-196.87-182.152-236.584a284.484 284.484 0 0 0-13.242-4.934l-10.331-3.565-5.339 9.536c-9.515 16.999-27.503 27.559-46.923 27.559l-.274-.009c-.23-.008-.46-.015-.691-.02l-16.079-.297 2.997 15.8c.636 3.353.958 6.744.958 10.081 0 29.648-24.121 53.769-53.769 53.769-23.686 0-44.323-15.178-51.352-37.77l-4.29-13.79-13.294 5.642c-6.643 2.819-13.704 4.248-20.987 4.248-15.008 0-29.446-6.349-39.611-17.419l-8.255-8.99-9.532 7.621c-31.403 25.104-56.698 55.386-75.184 90.006-19.285 36.12-30.22 75.312-32.497 116.484-4.22 76.281 21.426 150.132 72.214 207.952 50.792 57.825 120.721 92.769 196.905 98.393a297.77 297.77 0 0 0 21.781.804c153.717 0 281.242-120.318 290.321-273.916a293.644 293.644 0 0 0-1.374-50.601zM397.192 871.098c-6.579 0-13.26-.247-19.858-.733-49.415-3.647-95.94-20.875-135.341-49.539-15.862-11.539-30.575-24.924-43.848-40.035-46.241-52.644-69.593-119.856-65.753-189.257 3.875-70.055 35.475-133.683 89.294-180.35 14.041 11.132 31.582 17.344 49.686 17.344 6.317 0 12.528-.727 18.573-2.169 13.396 26.672 40.65 43.839 71.35 43.839 44.062 0 79.908-35.847 79.908-79.909 0-.165 0-.33-.002-.496 20.03-3.331 38.133-14.216 50.487-30.411.858.334 1.708.67 2.548 1.007 89.965 36.185 155.1 120.698 165.936 215.307a267.616 267.616 0 0 1 1.249 46.082 267.362 267.362 0 0 1-1.583 17.115c-16.304 131.523-128.509 232.205-262.646 232.205z"/><path fill="#492B15" d="M271.75 660.781a13.082 13.082 0 0 0-14.19-10.028l-46.606 5.197c-9.562 1.066-14.741 11.742-9.659 19.912l17.257 27.744c3.829 6.156 11.934 8.024 18.072 4.166l32.298-20.304a13.081 13.081 0 0 0 5.777-14.049l-2.949-12.638zm10.225-188.29c-3.786-7.613-13.271-10.364-20.543-5.958l-49.525 30.012a14.531 14.531 0 0 0-6.117 17.416l5.005 13.698a14.532 14.532 0 0 0 16.992 9.154l59.286-14.015c9.109-2.154 13.837-12.231 9.669-20.613l-14.767-29.694zM416.057 810.93c.28-.07.557-.149.836-.221 2.481-4.822 2.138-10.792-1.274-15.353l-35.206-47.058c-5.214-6.97-15.346-7.823-21.653-1.822l-30.037 28.581c-7.231 6.88-5.533 18.834 3.328 23.429l39.315 20.383c6.917-.984 13.819-2.034 20.701-3.101a265.239 265.239 0 0 0 23.99-4.838z"/><path fill="#492B15" d="M403.559 824.525L414 814.59a14.504 14.504 0 0 0 2.893-3.881c-.279.071-.556.15-.836.221a265.658 265.658 0 0 1-23.99 4.839 1715.351 1715.351 0 0 1-20.701 3.101l15.486 8.029a14.533 14.533 0 0 0 16.707-2.374zm19.524-224.641l-47.691-28.845c-9.784-5.918-22.395.395-23.521 11.774l-3.821 38.645c-.848 8.575 5.438 16.204 14.017 17.011l45.143 4.247a15.548 15.548 0 0 0 15.617-9.059l6.369-14.046c3.254-7.176.628-15.65-6.113-19.727zM563.539 494.81l2.009-24.077a14.532 14.532 0 0 0-10.844-15.278l-49.86-12.889c-7.9-2.042-15.934 2.82-17.788 10.768L481 479.289c-1.859 7.97 3.227 15.902 11.244 17.539l53.905 11.011c8.529 1.743 16.666-4.354 17.39-13.029zM595.8 614.521l-57.912-27.768c-7.941-3.808-17.418.268-20.115 8.652l-22.582 70.17a14.533 14.533 0 0 0 6.26 16.854l31.849 19.448a14.531 14.531 0 0 0 18.995-3.419l48.646-61.851c5.749-7.309 3.246-18.064-5.141-22.086z"/><path fill="#93C740" d="M526.422 848.661c1.017-.654 2.04-1.3 3.048-1.968-1.008.668-2.031 1.314-3.048 1.968zm-7.857 4.881z"/><path fill="#80B041" d="M524.067 850.181c.792-.497 1.569-1.015 2.355-1.52-.786.505-1.563 1.023-2.355 1.52z"/><path fill="#673995" d="M206.175 819.389c.279.289.577.566.861.854.142-.066.297-.146.441-.216-.525-.124-.984-.311-1.302-.638z"/><path fill="#98CA3E" d="M139.024 579.981c-4.437 0-8.442.236-11.943.609a8.505 8.505 0 0 0-.696-.028c-18.248-.003-34.686 56.284-1.963 92.274 0 0 67.467-45.019 135.984-45.186-32.335-28.058-80.476-43.662-105.151-46.665a134.74 134.74 0 0 0-16.231-1.004z"/><path fill="#231F20" d="M277.538 607.907c-37.738-32.746-91.916-49.558-119.125-52.869a161.265 161.265 0 0 0-19.389-1.196c-4.435 0-8.791.196-12.976.583-7.99.084-27.016 3.303-38.843 30.033-12.371 27.96-12.053 73.046 17.877 105.962a26.112 26.112 0 0 0 19.352 8.556 26.055 26.055 0 0 0 14.497-4.397c.581-.385 62-40.644 121.54-40.79a26.14 26.14 0 0 0 17.067-45.882zm-138.514-27.926c4.914 0 10.357.29 16.232 1.004 24.675 3.003 72.815 18.607 105.151 46.665-68.517.167-135.984 45.186-135.984 45.186-32.723-35.99-16.285-92.277 1.963-92.274.231 0 .464.009.696.028 3.501-.372 7.505-.609 11.942-.609z"/><path fill="none" d="M642.031 809.991c-9.885-7.752-18.129-10.852-32.221-18.06h-.003s-15.38 16.694-17.188 18.781c-13.566 15.665-28.714 29.243-45.806 40.965-.754.517-1.521 1.014-2.279 1.523-1.123.754-2.24 1.515-3.375 2.253-1.072.697-2.162 1.371-3.246 2.055-.836.527-1.665 1.067-2.508 1.587a281.392 281.392 0 0 1-5.858 3.507 392.35 392.35 0 0 0 18.571 5.559c16.273 4.432 33.373 6.982 50.224 6.982 27.04 0 53.438-6.572 74.784-22.466-1.737-3.525-3.502-7.076-3.871-8.143-6.451-13.387-15.494-25.344-27.224-34.543zm-466.452 11.396c.427 1.18.882 2.344 1.352 3.499-3.096-10.667-5.025-21.708-5.718-32.414-.946 9.741 1.014 19.655 4.366 28.915z"/><path fill="#93C740" d="M696.005 829.002c17.238-24.695 22.712-57.573 12.385-86.107-4.836-13.358-13.072-24.275-23.322-33.072-13.871-11.906-31.428-19.927-49.217-24.854-17.219-4.769-35.287-7.043-53.342-7.043a219.176 219.176 0 0 0-44.971 4.684c-9.4 1.977-18.68 4.519-27.801 7.531-54.581 18.029-103.65 48.822-155.234 73.554-32.179 15.429-66.377 29.411-102.335 32.067-3.454.255-6.9.372-10.315.372-36.13 0-68.758-13.04-68.758-13.04a46.282 46.282 0 0 0-1.882 9.378c.693 10.706 2.622 21.747 5.718 32.414 12.607 30.988 40.526 53.18 73.495 59.887 10.644 2.166 21.458 3.151 32.326 3.151 71.108 0 144.871-42.141 193.656-71.474 29.459-17.711 64.656-28.946 99.271-28.946 5.308 0 10.601.264 15.856.809 6.055.629 12.057 1.823 17.382 3.363.296.086.599.168.891.256h.003c14.092 7.208 22.336 10.308 32.221 18.06 11.73 9.199 20.773 21.156 27.225 34.545.369 1.066 2.134 4.617 3.871 8.143 8.524-6.349 16.247-14.178 22.877-23.678z"/><path fill="none" d="M685.068 709.822c-13.871-11.906-31.428-19.927-49.217-24.854-17.219-4.769-35.287-7.043-53.342-7.043a219.176 219.176 0 0 0-44.971 4.684c-9.4 1.977-18.68 4.519-27.801 7.531-54.581 18.029-103.65 48.822-155.234 73.554-32.179 15.429-66.377 29.411-102.335 32.067-3.454.255-6.9.372-10.315.372-36.13 0-68.758-13.04-68.758-13.04a46.282 46.282 0 0 0-1.882 9.378c-.946 9.741 1.014 19.655 4.366 28.915.427 1.18.882 2.344 1.352 3.499 12.607 30.988 40.526 53.18 73.495 59.887 10.644 2.166 21.458 3.151 32.326 3.151 71.108 0 144.871-42.141 193.656-71.474 29.459-17.711 64.656-28.946 99.271-28.946 5.308 0 10.601.264 15.856.809 6.055.629 12.057 1.823 17.382 3.363.296.086.599.168.891.256l-.228.247c2.241.371 4.845.947 7.805 1.822 0 0 18.682 10.378 23.83 14.998a155.121 155.121 0 0 1 17.91 18.112c3.803 5.556 7.209 11.362 10.131 17.425.369 1.066 2.135 4.617 3.871 8.143 8.525-6.348 16.248-14.177 22.879-23.677 17.238-24.695 22.712-57.573 12.385-86.107-4.837-13.358-13.073-24.275-23.323-33.072z"/><path fill="#80B041" d="M659.125 827.111a155.121 155.121 0 0 0-17.91-18.112c-5.148-4.62-23.83-14.998-23.83-14.998-2.96-.875-5.563-1.451-7.805-1.822-1.887 2.048-15.28 16.595-16.96 18.534-13.566 15.665-28.714 29.243-45.806 40.965-.754.517-1.521 1.014-2.279 1.523-1.123.754-2.24 1.515-3.375 2.253-1.072.697-2.162 1.371-3.246 2.055-.836.527-1.665 1.067-2.508 1.587a281.392 281.392 0 0 1-5.858 3.507 392.35 392.35 0 0 0 18.571 5.559c16.273 4.432 33.373 6.982 50.224 6.982 27.04 0 53.438-6.572 74.784-22.466-1.736-3.525-3.502-7.076-3.871-8.143-2.923-6.061-6.329-11.868-10.131-17.424z"/><path fill="#231F20" d="M732.968 733.998c-6.101-16.854-16.488-31.662-30.875-44.011-15.746-13.516-35.687-23.68-59.266-30.209-19.148-5.303-39.443-7.992-60.318-7.992a245.213 245.213 0 0 0-50.349 5.243c-10.078 2.119-20.381 4.908-30.622 8.291-39.142 12.93-75.227 31.885-110.123 50.216-15.79 8.294-32.118 16.871-48.213 24.588-27.679 13.271-60.369 27.162-92.96 29.569-2.7.2-5.523.301-8.39.301-29.951 0-58.065-10.788-59.087-11.186a25.928 25.928 0 0 0-9.718-1.89 26.132 26.132 0 0 0-11.168 2.514c-6.602 3.116-11.543 8.875-13.727 15.841-5.255 16.763-4.297 35.271 2.848 55.01 7.346 20.295 20.08 38.453 36.824 52.512 16.368 13.742 36.212 23.283 57.39 27.592 11.989 2.439 24.618 3.676 37.537 3.676 35.191 0 72.945-8.771 115.42-26.817 33.608-14.278 63.937-31.697 91.706-48.393 19.171-11.525 40.067-19.381 60.688-22.976a213.017 213.017 0 0 1-18.535 14.243c-.355.243-.71.477-1.064.712-.334.222-.669.443-1.002.667l-.861.579c-.728.491-1.455.982-2.191 1.461-.66.43-1.326.846-1.992 1.264l-.946.595c-.352.222-.702.444-1.052.668-.404.259-.81.519-1.219.771a258.541 258.541 0 0 1-5.302 3.175 26.14 26.14 0 0 0 5.04 47.443 418.132 418.132 0 0 0 19.809 5.93c19.252 5.243 38.461 7.901 57.093 7.901 23.69 0 45.501-4.307 64.825-12.799 22.201-9.757 40.461-24.736 54.271-44.521 10.865-15.564 18.107-33.786 20.945-52.696 2.937-19.566 1.064-39.37-5.416-57.272zm-36.963 95.004c-6.631 9.5-14.354 17.329-22.879 23.677-21.346 15.894-47.744 22.466-74.784 22.466-16.851 0-33.95-2.551-50.224-6.982a395.789 395.789 0 0 1-18.571-5.559 272.103 272.103 0 0 0 5.858-3.507c.843-.52 1.672-1.06 2.508-1.587 1.084-.684 2.174-1.357 3.246-2.055 1.135-.738 2.252-1.499 3.375-2.253.758-.51 1.525-1.007 2.279-1.523 17.092-11.722 32.239-25.3 45.806-40.965 1.68-1.939 15.073-16.486 16.96-18.534l.228-.247c-.292-.088-.595-.17-.891-.256-5.325-1.54-11.327-2.734-17.382-3.363a153.739 153.739 0 0 0-15.856-.809c-34.614 0-69.812 11.235-99.271 28.946-48.786 29.333-122.548 71.474-193.656 71.474-10.867 0-21.682-.985-32.326-3.151-32.969-6.707-60.888-28.898-73.495-59.887a95.495 95.495 0 0 1-1.352-3.499c-3.352-9.26-5.312-19.174-4.366-28.915a46.282 46.282 0 0 1 1.882-9.378s32.628 13.04 68.758 13.04c3.415 0 6.862-.117 10.315-.372 35.958-2.656 70.156-16.639 102.335-32.067 51.584-24.732 100.653-55.525 155.234-73.554 9.121-3.013 18.4-5.555 27.801-7.531a219.238 219.238 0 0 1 44.971-4.684c18.055 0 36.123 2.275 53.342 7.043 17.789 4.927 35.346 12.947 49.217 24.854 10.25 8.797 18.486 19.714 23.322 33.072 10.328 28.533 4.855 61.411-12.384 86.106zM1.188 989.365h58.567c40.065 0 60.099 16.526 60.099 49.571 0 32.922-20.033 49.381-60.099 49.381H45.401v35.026H1.188V989.365zm74.836 49.572c0-8.804-5.55-13.205-16.651-13.205H45.401v26.221h13.972c11.102-.001 16.651-4.337 16.651-13.016zm133.789 84.407h-43.83V1077.6l-50.912-88.234h49.955l22.968 50.72 22.968-50.72h49.955l-51.104 88.234v45.744zm52.442-133.979h115.987v38.662h-35.983v95.316h-44.021v-95.316h-35.982v-38.662zm209.004 0h44.021v133.979h-44.021v-47.658h-36.365v47.658h-44.213V989.365h44.213v47.658h36.365v-47.658zm77.705 117.232c-12.631-13.207-18.947-29.954-18.947-50.242s6.316-37.035 18.947-50.242c12.633-13.207 30.496-19.81 53.592-19.81 23.094 0 40.959 6.603 53.592 19.81s18.947 29.954 18.947 50.242-6.314 37.035-18.947 50.242c-12.633 13.206-30.498 19.81-53.592 19.81-23.096-.001-40.959-6.604-53.592-19.81zm73.594-28.232c4.785-5.359 7.176-12.695 7.176-22.011 0-9.312-2.391-16.652-7.176-22.011-4.785-5.359-11.455-8.038-20.002-8.038-8.551 0-15.217 2.679-20.002 8.038-4.783 5.358-7.176 12.698-7.176 22.011 0 9.315 2.393 16.651 7.176 22.011 4.785 5.358 11.451 8.038 20.002 8.038 8.547 0 15.217-2.679 20.002-8.038zm111.488 44.979h-44.213V989.365h37.322l45.361 62.97c-.766-6.379-1.148-14.035-1.148-22.968v-40.002h44.213v133.979h-37.322l-45.361-62.778c.766 6.382 1.148 13.909 1.148 22.585v40.193zm-633.327 48.162h34.643V1289.8H97.339v-54.078l-19.434 30.081H57.457l-19.434-30.249v54.246H0v-118.294h34.644l32.953 51.712 33.122-51.712zm64.385 103.507c-11.153-11.66-16.73-26.447-16.73-44.359 0-17.914 5.577-32.7 16.73-44.36 11.153-11.661 26.925-17.491 47.317-17.491 20.39 0 36.163 5.83 47.316 17.491 11.154 11.66 16.73 26.446 16.73 44.36 0 17.912-5.576 32.699-16.73 44.359-11.153 11.66-26.927 17.49-47.316 17.49-20.393 0-36.164-5.83-47.317-17.49zm64.976-24.926c4.225-4.732 6.337-11.209 6.337-19.434 0-8.223-2.112-14.703-6.337-19.435s-10.113-7.098-17.659-7.098c-7.55 0-13.436 2.366-17.66 7.098s-6.337 11.212-6.337 19.435c0 8.225 2.112 14.701 6.337 19.434 4.225 4.731 10.11 7.098 17.66 7.098 7.546 0 13.434-2.367 17.659-7.098zm98.438 39.713H289.48v-118.294h54.922c6.76 0 12.954.677 18.589 2.028a54.565 54.565 0 0 1 15.886 6.59c4.956 3.043 8.843 7.381 11.66 13.013 2.814 5.635 4.225 12.337 4.225 20.11 0 16.787-6.76 28.559-20.278 35.318l30.418 41.234h-42.924l-24.334-34.981h-9.126v34.982zm0-86.524v22.307h15.04c3.718 0 6.646-1.014 8.788-3.042 2.139-2.028 3.21-4.731 3.21-8.111s-1.071-6.083-3.21-8.112c-2.142-2.027-5.07-3.041-8.788-3.041h-15.04zm80.101 2.198c0-11.941 4.364-21.039 13.097-27.293 8.729-6.252 19.856-9.379 33.375-9.379 16.786 0 31.264 3.27 43.43 9.802v33.798c-12.166-7.773-25.236-11.547-39.206-11.322-6.986 0-10.477 1.748-10.477 5.238 0 1.58 1.069 3.016 3.21 4.311 2.14 1.296 4.872 2.449 8.196 3.464a724.718 724.718 0 0 0 11.153 3.295c4.111 1.183 8.223 2.733 12.338 4.647 4.109 1.917 7.828 4.17 11.152 6.76 3.322 2.593 6.055 6.084 8.195 10.477 2.139 4.395 3.211 9.354 3.211 14.872 0 25.575-16.561 38.36-49.682 38.36-18.026 0-33.688-3.718-46.979-11.153v-35.319c14.081 9.24 28.445 13.857 43.093 13.857 4.956 0 8.42-.449 10.393-1.352 1.969-.9 2.958-2.365 2.958-4.394 0-1.802-1.41-3.464-4.225-4.985-2.817-1.521-6.366-2.814-10.646-3.887-4.282-1.069-8.9-2.619-13.857-4.647-4.958-2.028-9.576-4.335-13.856-6.929-4.283-2.59-7.832-6.337-10.646-11.238-2.82-4.901-4.227-10.562-4.227-16.983zm110.517-33.968h89.566v30.757h-50.529v13.688h44.445v28.729h-44.445v14.026h51.543v31.095h-90.58v-118.295zm105.112 0h39.037v84.157h50.529v34.137h-89.566v-118.294zm97.337 33.968c0-11.941 4.363-21.039 13.096-27.293 8.73-6.252 19.857-9.379 33.375-9.379 16.787 0 31.264 3.27 43.432 9.802v33.798c-12.168-7.773-25.238-11.547-39.207-11.322-6.986 0-10.477 1.748-10.477 5.238 0 1.58 1.07 3.016 3.211 4.311 2.139 1.296 4.871 2.449 8.195 3.464a725.067 725.067 0 0 0 11.154 3.295c4.111 1.183 8.223 2.733 12.336 4.647 4.111 1.917 7.828 4.17 11.154 6.76 3.32 2.593 6.055 6.084 8.195 10.477 2.139 4.395 3.211 9.354 3.211 14.872 0 25.575-16.561 38.36-49.684 38.36-18.025 0-33.688-3.718-46.979-11.153v-35.319c14.08 9.24 28.445 13.857 43.092 13.857 4.957 0 8.42-.449 10.393-1.352 1.971-.9 2.957-2.365 2.957-4.394 0-1.802-1.41-3.464-4.225-4.985-2.816-1.521-6.365-2.814-10.646-3.887-4.281-1.069-8.9-2.619-13.857-4.647s-9.576-4.335-13.855-6.929c-4.283-2.59-7.832-6.337-10.646-11.238-2.818-4.901-4.225-10.562-4.225-16.983z"/></svg>